<svg width="120" height="25" viewBox="0 0 120 25" fill="none" xmlns="http://www.w3.org/2000/svg">
<g clip-path="url(#clip0_40000001_35000)">
<path d="M6.5937 19.2011C10.2363 19.2011 13.1874 16.2475 13.1874 12.6074C13.1874 8.96723 10.2338 6.01367 6.5937 6.01367C2.95355 6.01367 0 8.96482 0 12.6074C0 16.2499 2.95355 19.2011 6.5937 19.2011Z" fill="#F0D224"/>
<path d="M17.9598 16.1584C19.9256 16.1584 21.5205 14.5636 21.5205 12.5978C21.5205 10.6319 19.9256 9.03711 17.9598 9.03711C15.994 9.03711 14.3992 10.6319 14.3992 12.5978C14.3992 14.5636 15.994 16.1584 17.9598 16.1584Z" fill="#F0D224"/>
<path d="M26.8637 16.1096C28.8054 15.794 30.1232 13.9655 29.8076 12.0238C29.492 10.0821 27.6635 8.7643 25.7218 9.07989C23.7801 9.39548 22.4623 11.224 22.7779 13.1657C23.0935 15.1075 24.922 16.4252 26.8637 16.1096Z" fill="#F0D224"/>
<path d="M37.9191 9.54725C37.9191 4.24965 42.0724 0 47.6471 0C51.875 0 55.5417 2.87887 56.6378 6.97675H52.7905C51.8702 4.81097 50.1935 3.48596 47.4664 3.48596C44.1322 3.48596 41.4798 6.21306 41.4798 9.54725C41.4798 12.8814 44.1274 15.6085 47.4664 15.6085C50.0369 15.6085 51.6943 14.3317 52.6845 12.2744H56.6065C55.4357 16.2975 51.8196 19.0993 47.6422 19.0993C41.9616 19.0993 37.9143 14.8449 37.9143 9.55207L37.9191 9.54725Z" fill="#1C42E8"/>
<path d="M57.604 12.4815C57.604 8.81488 60.5311 5.86133 64.1977 5.86133C67.8644 5.86133 70.7914 8.81488 70.7914 12.4815C70.7914 16.1482 67.8644 19.1017 64.1977 19.1017C60.5311 19.1017 57.604 16.1482 57.604 12.4815ZM67.4066 12.4815C67.4066 10.6723 65.9539 9.17143 64.1977 9.17143C62.4415 9.17143 61.0129 10.6723 61.0129 12.4815C61.0129 14.2908 62.3885 15.7916 64.1977 15.7916C66.0069 15.7916 67.4066 14.2908 67.4066 12.4815Z" fill="#1C42E8"/>
<path d="M75.6841 24.7052H72.1934V6.11181H75.6841V7.5645C76.4984 6.56954 77.7728 5.85645 79.5074 5.85645C82.3862 5.85645 85.6698 7.97163 85.6698 12.4766C85.6698 16.9817 82.2851 19.0968 79.558 19.0968C77.8499 19.0968 76.5032 18.5355 75.6866 17.596V24.7076L75.6841 24.7052ZM82.2537 12.4501C82.2537 10.4915 80.8035 9.03886 78.8425 9.03886C76.8815 9.03886 75.583 10.5397 75.583 12.4501C75.583 14.3606 76.9345 15.8903 78.8425 15.8903C80.7505 15.8903 82.2537 14.3895 82.2537 12.4501Z" fill="#1C42E8"/>
<path d="M90.4569 24.7052H86.9661V6.11181H90.4569V7.5645C91.2711 6.56954 92.5455 5.85645 94.2801 5.85645C97.159 5.85645 100.443 7.97163 100.443 12.4766C100.443 16.9817 97.0578 19.0968 94.3307 19.0968C92.6226 19.0968 91.2759 18.5355 90.4593 17.596V24.7076L90.4569 24.7052ZM97.024 12.4501C97.024 10.4915 95.5738 9.03886 93.6152 9.03886C91.6566 9.03886 90.3557 10.5397 90.3557 12.4501C90.3557 14.3606 91.7072 15.8903 93.6152 15.8903C95.5232 15.8903 97.024 14.3895 97.024 12.4501Z" fill="#1C42E8"/>
<path d="M101.478 12.4815C101.478 8.81488 104.408 5.86133 108.075 5.86133C111.741 5.86133 114.668 8.86547 114.668 12.5321V13.6523H104.815C105.198 15.1532 106.318 16.1241 108.075 16.1241C109.501 16.1241 110.315 15.5363 110.746 14.5967H114.464C113.444 17.425 111.329 19.1017 108.046 19.1017C104.049 19.1017 101.476 16.1482 101.476 12.4815H101.481H101.478ZM105.046 10.8241H111.057C110.575 9.57857 109.455 8.94015 108.104 8.94015C106.677 8.94015 105.632 9.70384 105.051 10.8241H105.046Z" fill="#1C42E8"/>
<path d="M116.099 0.255859H119.59V18.8445H116.099V0.255859Z" fill="#1C42E8"/>
</g>
<defs>
<clipPath id="clip0_40000001_35000">
<rect width="119.59" height="24.7077" fill="white"/>
</clipPath>
</defs>
</svg>
