<svg width="80" height="21" viewBox="0 0 80 21" fill="none" xmlns="http://www.w3.org/2000/svg">
<path fill-rule="evenodd" clip-rule="evenodd" d="M12.1956 0.230469L9.34667 4.37819H7.02132L5.05738 7.20959H7.49967L0.540339 17.3498C0.540339 17.3498 0 18.1566 0 19.3116C0 20.4666 1.49088 20.638 1.49088 20.638H6.78479L8.45373 17.6994H5.83205C5.83205 17.6994 4.82084 17.5833 5.29391 16.7822C5.77226 15.9676 11.8619 7.21134 11.8619 7.21134H14.9334L16.6164 4.37995H13.8039L16.6287 0.231788L12.1956 0.230469ZM28.7118 20.6376L42.1741 0.230469H37.6703L24.2146 20.6376H28.7114H28.7118ZM66.539 20.6376L80 0.230469H75.5032L62.0444 20.6376H66.539ZM17.6707 11.1542H24.8068C24.8068 11.1542 25.6047 9.82818 25.8457 8.73168C26.0888 7.63517 24.7826 7.34588 23.3203 7.34588C21.858 7.34588 19.6333 7.49404 17.6707 11.1542ZM26.6494 14.0098H15.8228C15.8228 14.0098 14.7188 15.3182 14.5949 16.4301C14.5949 16.4301 14.5949 17.3494 15.7419 17.3494H24.0695L21.8888 20.6372H15.1062C15.1062 20.6372 9.95603 20.6372 9.95603 17.6985C9.95603 17.6985 9.90855 15.5024 13.6848 10.4041C17.4636 5.29927 20.0484 5.10275 24.3895 5.10275C28.7307 5.10275 29.9077 6.43799 29.7718 7.54856C29.6259 8.81389 29.4733 9.48041 26.6485 14.0093M55.1079 11.1542H62.244C62.244 11.1542 63.0442 9.82818 63.2829 8.73168C63.5252 7.63517 62.2132 7.34588 60.7567 7.34588C59.3001 7.34588 57.0653 7.49404 55.1071 11.1542M64.0831 14.0098H53.2579C53.2579 14.0098 52.1504 15.3182 52.0312 16.4301C52.0312 16.4301 52.0312 17.3494 53.1774 17.3494H61.5129L59.3291 20.6372H52.5478C52.5478 20.6372 47.3933 20.6372 47.3933 17.6985C47.3933 17.6985 47.3401 15.5024 51.1233 10.4041C54.9009 5.29927 57.486 5.10275 61.8272 5.10275C66.1684 5.10275 67.3388 6.43799 67.2152 7.54856C67.064 8.81389 66.9101 9.48041 64.0844 14.0093M37.7621 16.4314C37.7621 16.4314 37.7621 17.3507 38.9026 17.3507H46.1658L43.9842 20.6376H38.2757C38.2757 20.6376 32.7188 20.8077 33.1255 17.6976C33.1255 17.6976 33.0679 15.5015 36.8468 10.4055C36.8468 10.4055 40.2686 5.10275 47.6487 5.10275H52.5258L50.3232 8.35621H46.3953C46.0383 8.35621 43.1849 8.64375 40.6283 11.4123C38.073 14.1795 37.8677 15.5015 37.7604 16.4296" fill="white"/>
</svg>
